<?xml version="1.0" encoding="UTF-8" standalone="no"?>
<!-- Created with Inkscape (http://www.inkscape.org/) -->

<svg
   xmlns:osb="http://www.openswatchbook.org/uri/2009/osb"
   xmlns:dc="http://purl.org/dc/elements/1.1/"
   xmlns:cc="http://creativecommons.org/ns#"
   xmlns:rdf="http://www.w3.org/1999/02/22-rdf-syntax-ns#"
   xmlns:svg="http://www.w3.org/2000/svg"
   xmlns="http://www.w3.org/2000/svg"
   xmlns:sodipodi="http://sodipodi.sourceforge.net/DTD/sodipodi-0.dtd"
   xmlns:inkscape="http://www.inkscape.org/namespaces/inkscape"
   width="1126.988"
   height="1126.988"
   viewBox="0 0 1126.9881 1126.9882"
   id="svg3532"
   version="1.1"
   inkscape:version="0.92.2 (5c3e80d, 2017-08-06)"
   sodipodi:docname="square_logo.svg"
   inkscape:export-filename="/home/senko/fosdem-2021-stand-static/logo.png"
   inkscape:export-xdpi="17.040001"
   inkscape:export-ydpi="17.040001">
  <defs
     id="defs3534">
    <linearGradient
       id="linearGradient4255"
       osb:paint="solid">
      <stop
         style="stop-color:#000000;stop-opacity:1;"
         offset="0"
         id="stop4257" />
    </linearGradient>
  </defs>
  <sodipodi:namedview
     id="base"
     pagecolor="#ffffff"
     bordercolor="#666666"
     borderopacity="1.0"
     inkscape:pageopacity="0.0"
     inkscape:pageshadow="2"
     inkscape:zoom="0.34"
     inkscape:cx="85.258299"
     inkscape:cy="310.21142"
     inkscape:document-units="px"
     inkscape:current-layer="layer1"
     showgrid="false"
     units="px"
     inkscape:window-width="1403"
     inkscape:window-height="871"
     inkscape:window-x="0"
     inkscape:window-y="0"
     inkscape:window-maximized="1"
     showguides="true"
     inkscape:guide-bbox="true"
     fit-margin-top="0"
     fit-margin-left="0"
     fit-margin-right="0"
     fit-margin-bottom="0">
    <sodipodi:guide
       position="185.29413,1088.2355"
       orientation="0,1"
       id="guide949"
       inkscape:locked="false" />
    <sodipodi:guide
       position="232.35295,438.23536"
       orientation="0,1"
       id="guide951"
       inkscape:locked="false" />
    <sodipodi:guide
       position="8.8235299,873.52954"
       orientation="1,0"
       id="guide953"
       inkscape:locked="false" />
    <sodipodi:guide
       position="-1261.7648,1529.412"
       orientation="-0.70710678,0.70710678"
       id="guide955"
       inkscape:locked="false" />
    <sodipodi:guide
       position="835.29416,308.82357"
       orientation="1,0"
       id="guide957"
       inkscape:locked="false" />
  </sodipodi:namedview>
  <metadata
     id="metadata3537">
    <rdf:RDF>
      <cc:Work
         rdf:about="">
        <dc:format>image/svg+xml</dc:format>
        <dc:type
           rdf:resource="http://purl.org/dc/dcmitype/StillImage" />
        <dc:title></dc:title>
      </cc:Work>
    </rdf:RDF>
  </metadata>
  <g
     inkscape:label="Layer 1"
     inkscape:groupmode="layer"
     id="layer1"
     transform="translate(-16.864746,-1039.375)">
    <g
       id="g933">
      <path
         inkscape:export-ydpi="18"
         inkscape:export-xdpi="18"
         id="path3505-5-9-3-4-7-1"
         d="m 986.06568,1567.0031 1.40997,97.8848 90.70825,-2.6124 3.1894,-95.6563 -95.30919,0.3829 z"
         inkscape:connector-curvature="0"
         style="fill:none;fill-opacity:1;stroke:#030303;stroke-width:25.90585518;stroke-linecap:round;stroke-linejoin:round;stroke-miterlimit:4;stroke-dasharray:none;stroke-dashoffset:3.00300002;stroke-opacity:1" />
      <path
         inkscape:export-ydpi="18"
         inkscape:export-xdpi="18"
         style="fill:#cc0000;fill-opacity:1;stroke-width:9.82422638"
         id="path7533-2-2-9-6-5"
         d="m 1097.2872,1465.5556 q 0,4.181 -2.9269,7.1073 l -14.2164,14.2154 q -2.9254,2.927 -7.1053,2.927 -4.1823,0 -7.108,-2.927 l -30.7308,-30.73 -30.7297,30.73 q -2.9272,2.927 -7.10764,2.927 -4.18002,0 -7.10774,-2.927 l -14.21488,-14.2154 q -2.9272,-2.9263 -2.9272,-7.1073 0,-4.1808 2.9272,-7.1073 l 30.72926,-30.7302 -30.72926,-30.73 q -2.9272,-2.9268 -2.9272,-7.1078 0,-4.1808 2.9272,-7.1073 l 14.21488,-14.2154 q 2.92772,-2.9266 7.10774,-2.9266 4.18044,0 7.10764,2.9266 l 30.7297,30.7302 30.7308,-30.7302 q 2.9257,-2.9266 7.108,-2.9266 4.1799,0 7.1053,2.9266 l 14.2164,14.2154 q 2.9269,2.9265 2.9269,7.1073 0,4.181 -2.9269,7.1078 l -30.7311,30.73 30.7311,30.7302 q 2.9269,2.9265 2.9269,7.1073 z"
         inkscape:connector-curvature="0" />
      <path
         inkscape:export-ydpi="18"
         inkscape:export-xdpi="18"
         style="fill:#3c8d2c;fill-opacity:0.94117647;stroke:none;stroke-width:9.82422638;stroke-opacity:0.74117647"
         id="path7475-1-3-9-8-3"
         d="m 1135.1248,1201.8452 q 0,4.1808 -2.9254,7.1076 l -75.6772,75.675 -14.2136,14.2154 q -2.9281,2.9268 -7.1086,2.9268 -4.1804,0 -7.108,-2.9268 l -14.2143,-14.2154 -37.83923,-37.8373 q -2.92583,-2.927 -2.92583,-7.108 0,-4.1808 2.92583,-7.1076 l 14.21654,-14.2149 q 2.92566,-2.9268 7.10745,-2.9268 4.18044,0 7.10654,2.9268 l 30.731,30.8344 68.5676,-68.6722 q 2.9256,-2.9265 7.1081,-2.9265 4.1802,0 7.1063,2.9265 l 14.2165,14.2154 q 2.9259,2.9266 2.9259,7.1076 z"
         inkscape:connector-curvature="0" />
    </g>
    <g
       transform="matrix(4.9115457,0,0,4.9115457,-334.59899,946.8084)"
       style="font-style:normal;font-weight:normal;font-size:40px;line-height:125%;font-family:sans-serif;letter-spacing:0px;word-spacing:0px;fill:#3c8d2c;fill-opacity:1;stroke:none;stroke-width:1px;stroke-linecap:butt;stroke-linejoin:miter;stroke-opacity:1"
       id="flowRoot4874-3">
      <path
         d="M 102.51758,215.9435 H 95.310547 L 83.884766,204.49819 H 80.310547 V 199.381 h 3.574219 l 11.425781,-11.44531 h 7.207033 l -14.394533,14.0039 z m -24.238283,0 h -5.078125 v -28.00781 h 5.078125 z"
         style="font-style:normal;font-variant:normal;font-weight:bold;font-stretch:normal;font-family:audiowide;-inkscape-font-specification:'audiowide Bold';fill:#3c8d2c;fill-opacity:1"
         id="path5612-74"
         inkscape:connector-curvature="0" />
      <path
         d="m 110.33008,190.49428 h -5.07813 v -4.58984 h 5.07813 z m 0,25.44922 h -5.07813 v -21.11328 h 5.07813 z"
         style="font-style:normal;font-variant:normal;font-weight:bold;font-stretch:normal;font-family:audiowide;-inkscape-font-specification:'audiowide Bold';fill:#3c8d2c;fill-opacity:1"
         id="path5614-1"
         inkscape:connector-curvature="0" />
      <path
         d="m 149.93945,194.83022 q -1.21093,2.71484 -2.61718,5.35156 -1.40625,2.61719 -2.94922,4.96094 -1.52344,2.34375 -3.125,4.33593 -1.60157,1.97266 -3.1836,3.41797 -1.5625,1.42578 -3.0664,2.2461 -1.48438,0.80078 -2.8125,0.80078 -0.54688,0 -1.01563,-0.19531 -0.46875,-0.19532 -0.82031,-0.52735 -0.35156,-0.35156 -0.54688,-0.82031 -0.19531,-0.46875 -0.19531,-1.01563 v -9.47265 l -10.07812,11.26953 q -0.39063,0.39062 -0.85938,0.58594 -0.44922,0.17578 -0.9375,0.17578 -0.52734,0 -0.99609,-0.19531 -0.44922,-0.19532 -0.80078,-0.52735 -0.35157,-0.35156 -0.56641,-0.82031 -0.19531,-0.46875 -0.19531,-1.01563 v -18.55468 h 5.07812 v 12.03125 l 10.11719,-11.3086 q 0.54688,-0.54687 1.28906,-0.68359 0.76172,-0.15625 1.48438,0.15625 0.72265,0.29297 1.13281,0.9375 0.42969,0.625 0.42969,1.38672 v 12.07031 q 1.64062,-1.58203 2.96875,-3.33984 1.32812,-1.75782 2.46094,-3.61328 1.15234,-1.875 2.14843,-3.78907 1.01563,-1.93359 1.97266,-3.84765 z"
         style="font-style:normal;font-variant:normal;font-weight:bold;font-stretch:normal;font-family:audiowide;-inkscape-font-specification:'audiowide Bold';fill:#3c8d2c;fill-opacity:1"
         id="path5616-6"
         inkscape:connector-curvature="0" />
      <path
         d="m 156.89258,190.49428 h -5.07813 v -4.58984 h 5.07813 z m 0,25.44922 h -5.07813 v -21.11328 h 5.07813 z"
         style="font-style:normal;font-variant:normal;font-weight:bold;font-stretch:normal;font-family:audiowide;-inkscape-font-specification:'audiowide Bold';fill:#3c8d2c;fill-opacity:1"
         id="path5618-6"
         inkscape:connector-curvature="0" />
      <path
         d="m 200.27148,193.01381 h -11.1914 v 22.92969 h -5.07813 v -22.92969 h -11.21093 v -5.07812 h 27.48046 z"
         style="font-style:normal;font-variant:normal;font-weight:bold;font-stretch:normal;font-family:audiowide;-inkscape-font-specification:'audiowide Bold';fill:#3c8d2c;fill-opacity:1"
         id="path5620-0"
         inkscape:connector-curvature="0" />
      <path
         d="M 229.09961,215.9435 H 210.7793 q -0.70313,0 -1.52344,-0.15625 -0.80078,-0.17578 -1.60156,-0.52735 -0.78125,-0.35156 -1.50391,-0.89843 -0.72266,-0.56641 -1.28906,-1.34766 -0.54688,-0.80078 -0.87891,-1.83594 -0.33203,-1.05468 -0.33203,-2.36328 v -13.75 q 0,-0.70312 0.15625,-1.5039 0.17578,-0.82032 0.52734,-1.60157 0.35157,-0.80078 0.91797,-1.52343 0.56641,-0.72266 1.34766,-1.26954 0.80078,-0.5664 1.83594,-0.89843 1.03515,-0.33203 2.34375,-0.33203 h 18.32031 v 5.07812 H 210.7793 q -0.9961,0 -1.52344,0.52734 -0.52734,0.52735 -0.52734,1.5625 v 13.71094 q 0,0.97656 0.52734,1.52344 0.54687,0.52734 1.52344,0.52734 h 18.32031 z"
         style="font-style:normal;font-variant:normal;font-weight:bold;font-stretch:normal;font-family:audiowide;-inkscape-font-specification:'audiowide Bold';fill:#3c8d2c;fill-opacity:1"
         id="path5622-9"
         inkscape:connector-curvature="0" />
      <path
         d="m 266.54102,215.9435 h -5.11719 v -16.67969 l -9.00391,15.83984 q -0.33203,0.60547 -0.9375,0.91797 -0.58594,0.3125 -1.26953,0.3125 -0.66406,0 -1.25,-0.3125 -0.56641,-0.3125 -0.89844,-0.91797 l -9.04297,-15.83984 v 16.67969 h -5.07812 v -25.83985 q 0,-0.8789 0.50781,-1.5625 0.52735,-0.68359 1.36719,-0.91796 0.41016,-0.0977 0.82031,-0.0586 0.41016,0.0195 0.78125,0.17578 0.39063,0.13672 0.70313,0.41016 0.3125,0.25391 0.52734,0.625 l 11.5625,20.09766 11.5625,-20.09766 q 0.44922,-0.74219 1.23047,-1.05469 0.80078,-0.3125 1.66016,-0.0977 0.82031,0.23437 1.34765,0.91796 0.52735,0.6836 0.52735,1.5625 v 25.83985 z"
         style="font-style:normal;font-variant:normal;font-weight:bold;font-stretch:normal;font-family:audiowide;-inkscape-font-specification:'audiowide Bold';fill:#3c8d2c;fill-opacity:1"
         id="path5624-7"
         inkscape:connector-curvature="0" />
      <path
         d="m 299.37305,207.70131 q 0,1.50391 -0.39063,2.71484 -0.37109,1.19141 -0.99609,2.10938 -0.625,0.91797 -1.46485,1.5625 -0.83984,0.64453 -1.73828,1.05469 -0.89843,0.41015 -1.83593,0.60547 -0.91797,0.19531 -1.73829,0.19531 h -19.58984 v -5.07813 h 19.58984 q 1.46485,0 2.26563,-0.85937 0.82031,-0.85938 0.82031,-2.30469 0,-0.70312 -0.21484,-1.28906 -0.21485,-0.58594 -0.625,-1.01563 -0.39063,-0.42968 -0.97656,-0.66406 -0.56641,-0.23437 -1.26954,-0.23437 H 279.5293 q -1.23047,0 -2.65625,-0.42969 -1.42578,-0.44922 -2.65625,-1.42578 -1.21094,-0.97657 -2.03125,-2.5586 -0.80078,-1.58203 -0.80078,-3.86718 0,-2.28516 0.80078,-3.84766 0.82031,-1.58203 2.03125,-2.55859 1.23047,-0.9961 2.65625,-1.42579 1.42578,-0.44921 2.65625,-0.44921 h 17.28515 v 5.07812 H 279.5293 q -1.44532,0 -2.26563,0.87891 -0.80078,0.8789 -0.80078,2.32422 0,1.46484 0.80078,2.32421 0.82031,0.83985 2.26563,0.83985 h 11.67968 0.0391 q 0.82031,0.0195 1.73828,0.23437 0.91797,0.19532 1.8164,0.625 0.91797,0.42969 1.73829,1.09375 0.82031,0.64453 1.44531,1.5625 0.64453,0.91797 1.01562,2.10938 0.3711,1.1914 0.3711,2.69531 z"
         style="font-style:normal;font-variant:normal;font-weight:bold;font-stretch:normal;font-family:audiowide;-inkscape-font-specification:'audiowide Bold';fill:#3c8d2c;fill-opacity:1"
         id="path5626-4"
         inkscape:connector-curvature="0" />
    </g>
    <g
       aria-label="open source test management"
       transform="translate(15.295303,1029.4372)"
       style="font-style:normal;font-variant:normal;font-weight:normal;font-stretch:normal;font-size:85.33333588px;line-height:125%;font-family:'Alegreya SC';-inkscape-font-specification:'Alegreya SC';letter-spacing:0px;word-spacing:0px;fill:#000000;fill-opacity:1;stroke:none;stroke-width:1px;stroke-linecap:butt;stroke-linejoin:miter;stroke-opacity:1"
       id="flowRoot26">
      <path
         d="m 39.030777,1062.8904 q 0,8.6186 -5.12,14.2506 -5.12,5.632 -13.909334,5.632 -8.618667,0 -13.5680001,-5.4613 -4.8640001,-5.4613 -4.8640001,-14.08 0,-8.2773 4.7786668,-14.1653 4.7786664,-5.9734 13.9946674,-5.9734 9.301333,0 13.994667,5.888 4.693333,5.8027 4.693333,13.9094 z m -6.314667,-0.085 q 0,-6.4853 -3.328,-10.496 -3.242666,-4.096 -9.216,-4.096 -5.973333,0 -9.216,4.1814 -3.1573337,4.1813 -3.1573337,10.496 0,6.2293 3.1573337,10.496 3.157333,4.2666 9.216,4.2666 6.058667,0 9.301334,-4.1813 3.242666,-4.2667 3.242666,-10.6667 z"
         style="font-style:normal;font-variant:normal;font-weight:normal;font-stretch:normal;font-family:'Zilla Slab';-inkscape-font-specification:'Zilla Slab'"
         id="path62" />
      <path
         d="m 85.936113,1061.8664 q 0,5.0346 -1.792,9.8986 -1.706667,4.7787 -5.546667,7.936 -3.754666,3.072 -9.984,3.072 -8.618667,0 -12.544,-6.4 v 18.8587 h 8.789333 v 4.864 h -21.504 v -4.864 h 6.741333 v -46.4213 h -6.826667 v -4.864 h 12.800001 v 7.936 q 1.706666,-3.4134 4.949333,-6.0587 3.242667,-2.6453 8.533334,-2.6453 7.338667,0 11.861333,4.9493 4.522667,4.9493 4.522667,13.7387 z m -6.314667,0.512 q 0,-6.8267 -3.328,-10.4107 -3.328,-3.6693 -8.277333,-3.6693 -5.12,0 -8.448001,4.096 -3.328,4.0106 -3.498666,8.3626 v 5.632 q 0,4.7787 3.328,8.0214 3.328,3.2426 8.021333,3.2426 6.400001,0 9.301334,-4.608 2.901333,-4.608 2.901333,-10.6666 z"
         style="font-style:normal;font-variant:normal;font-weight:normal;font-stretch:normal;font-family:'Zilla Slab';-inkscape-font-specification:'Zilla Slab'"
         id="path64" />
      <path
         d="m 126.36545,1070.997 q -0.768,4.864 -4.864,8.3627 -4.096,3.4133 -11.09334,3.4133 -8.02133,0 -12.970665,-5.0346 -4.949333,-5.0347 -4.949333,-14.2507 0,-8.8747 4.693333,-14.592 4.693335,-5.7173 12.714665,-5.7173 7.85067,0 11.94667,4.9493 4.096,4.9493 4.18133,11.6907 0,2.2186 -0.512,4.5226 H 98.802779 q 0.512,13.312 12.032001,13.312 4.52267,0 7.08267,-2.1333 2.56,-2.1333 3.41333,-5.632 z m -6.656,-11.0933 q 0.42666,-4.2667 -2.048,-8.0213 -2.38934,-3.7547 -7.936,-3.7547 -5.29067,0 -7.76534,3.4987 -2.474664,3.4986 -3.071998,8.2773 z"
         style="font-style:normal;font-variant:normal;font-weight:normal;font-stretch:normal;font-family:'Zilla Slab';-inkscape-font-specification:'Zilla Slab'"
         id="path66" />
      <path
         d="m 177.54011,1081.9197 h -19.2 v -4.864 h 6.57067 v -17.664 q 0,-6.144 -2.47467,-8.6187 -2.47467,-2.56 -6.31467,-2.56 -5.12,0 -8.27733,3.4134 -3.072,3.328 -3.24267,7.68 v 17.7493 h 6.656 v 4.864 h -19.28533 v -4.864 h 6.656 v -28.2453 h -6.82667 v -4.864 h 12.8 v 6.7413 q 4.096,-7.5093 13.312,-7.5093 5.54667,0 9.30134,3.4133 3.75466,3.4133 3.75466,11.008 v 19.456 h 6.57067 z"
         style="font-style:normal;font-variant:normal;font-weight:normal;font-stretch:normal;font-family:'Zilla Slab';-inkscape-font-specification:'Zilla Slab'"
         id="path68" />
      <path
         d="m 231.62678,1070.9117 q 0,5.5467 -4.69333,8.704 -4.608,3.1573 -11.43467,3.1573 -4.01067,0 -8.02133,-1.024 -3.92534,-1.1093 -6.4,-2.7306 l 1.19466,-8.6187 4.77867,0.512 -0.256,5.0347 q 3.92533,1.8773 8.448,1.8773 4.01067,0 7.08267,-1.536 3.15733,-1.6213 3.15733,-4.864 0,-3.1573 -2.38933,-4.4373 -2.38933,-1.28 -5.97333,-1.8774 -3.49867,-0.5973 -7.08267,-1.4506 -3.584,-0.8534 -5.97334,-2.9014 -2.38933,-2.1333 -2.38933,-6.5706 0,-6.0587 4.43733,-8.5334 4.43734,-2.4746 9.64267,-2.4746 3.92534,0 7.33867,1.024 3.49867,1.024 5.888,2.4746 l 0.93867,8.8747 -4.94934,0.5973 -0.93866,-6.144 q -3.584,-1.8773 -7.76534,-1.8773 -3.584,0 -5.888,1.3653 -2.304,1.3654 -2.304,4.2667 0,2.9867 2.38933,4.2667 2.38934,1.1946 5.88801,1.792 3.49866,0.512 6.99733,1.3653 3.49867,0.8533 5.888,3.072 2.38933,2.1333 2.38933,6.656 z"
         style="font-style:normal;font-variant:normal;font-weight:normal;font-stretch:normal;font-family:'Zilla Slab';-inkscape-font-specification:'Zilla Slab'"
         id="path70" />
      <path
         d="m 275.53079,1062.8904 q 0,8.6186 -5.12,14.2506 -5.12,5.632 -13.90933,5.632 -8.61867,0 -13.568,-5.4613 -4.864,-5.4613 -4.864,-14.08 0,-8.2773 4.77866,-14.1653 4.77867,-5.9734 13.99467,-5.9734 9.30134,0 13.99467,5.888 4.69333,5.8027 4.69333,13.9094 z m -6.31466,-0.085 q 0,-6.4853 -3.328,-10.496 -3.24267,-4.096 -9.216,-4.096 -5.97334,0 -9.216,4.1814 -3.15734,4.1813 -3.15734,10.496 0,6.2293 3.15734,10.496 3.15733,4.2666 9.216,4.2666 6.05866,0 9.30133,-4.1813 3.24267,-4.2667 3.24267,-10.6667 z"
         style="font-style:normal;font-variant:normal;font-weight:normal;font-stretch:normal;font-family:'Zilla Slab';-inkscape-font-specification:'Zilla Slab'"
         id="path72" />
      <path
         d="m 325.33745,1081.9197 h -12.8 v -7.168 q -1.792,3.584 -5.29066,5.8027 -3.41334,2.2186 -7.936,2.2186 -5.54667,0 -9.38667,-3.4133 -3.75467,-3.4987 -3.75467,-11.0933 v -19.456 h -6.656 v -4.864 h 12.62934 v 22.6133 q 0,6.144 2.56,8.6187 2.56,2.4746 6.57066,2.4746 4.864,0 7.936,-3.6693 3.15734,-3.6693 3.328,-7.7653 v -17.408 h -7.936 v -4.864 h 13.90934 v 33.1093 h 6.82666 z"
         style="font-style:normal;font-variant:normal;font-weight:normal;font-stretch:normal;font-family:'Zilla Slab';-inkscape-font-specification:'Zilla Slab'"
         id="path74" />
      <path
         d="m 350.81346,1043.2637 q 4.096,0 6.48534,1.9627 l 1.45066,9.5573 -4.864,0.5973 -1.45066,-6.4853 q -1.45067,-0.512 -2.90134,-0.512 -3.328,0 -5.54666,2.816 -2.21867,2.7307 -2.21867,7.168 v 18.688 h 8.78933 v 4.864 H 329.1388 v -4.864 h 6.656 v -28.2453 h -6.82667 v -4.864 h 12.45867 v 6.8266 q 1.10933,-3.1573 3.584,-5.2906 2.56,-2.2187 5.80266,-2.2187 z"
         style="font-style:normal;font-variant:normal;font-weight:normal;font-stretch:normal;font-family:'Zilla Slab';-inkscape-font-specification:'Zilla Slab'"
         id="path76" />
      <path
         d="m 398.93481,1069.1197 q -0.768,4.9493 -4.52267,9.3013 -3.66933,4.352 -11.52,4.352 -7.85067,0 -12.544,-5.0346 -4.69333,-5.12 -4.69333,-14.2507 0,-7.8507 4.43733,-14.08 4.43733,-6.2293 13.312,-6.2293 3.75467,0 6.912,0.8533 3.15733,0.8533 6.05867,3.072 l 1.45066,9.1307 -4.94933,0.5973 -1.45067,-6.4 q -3.41333,-2.1333 -8.10666,-2.1333 -6.05867,0 -8.704,4.352 -2.64534,4.352 -2.64534,10.496 0,6.8266 2.98667,10.6666 2.98667,3.84 8.61867,3.84 8.53333,0 10.24,-9.6426 z"
         style="font-style:normal;font-variant:normal;font-weight:normal;font-stretch:normal;font-family:'Zilla Slab';-inkscape-font-specification:'Zilla Slab'"
         id="path78" />
      <path
         d="m 439.03214,1070.997 q -0.768,4.864 -4.864,8.3627 -4.096,3.4133 -11.09333,3.4133 -8.02134,0 -12.97067,-5.0346 -4.94933,-5.0347 -4.94933,-14.2507 0,-8.8747 4.69333,-14.592 4.69333,-5.7173 12.71467,-5.7173 7.85066,0 11.94666,4.9493 4.096,4.9493 4.18134,11.6907 0,2.2186 -0.512,4.5226 h -26.70934 q 0.512,13.312 12.032,13.312 4.52267,0 7.08267,-2.1333 2.56,-2.1333 3.41333,-5.632 z m -6.656,-11.0933 q 0.42667,-4.2667 -2.048,-8.0213 -2.38933,-3.7547 -7.936,-3.7547 -5.29067,0 -7.76533,3.4987 -2.47467,3.4986 -3.072,8.2773 z"
         style="font-style:normal;font-variant:normal;font-weight:normal;font-stretch:normal;font-family:'Zilla Slab';-inkscape-font-specification:'Zilla Slab'"
         id="path80" />
      <path
         d="m 496.05747,1069.973 q -0.85333,6.656 -4.608,9.728 -3.75466,3.072 -9.728,3.072 -6.4,0 -10.41066,-3.1573 -3.92534,-3.2427 -3.92534,-9.216 v -19.1147 h -5.46133 v -7.8506 h 5.46133 v -11.6907 h 11.008 v 11.6907 h 13.824 v 7.8506 h -13.824 v 17.2374 q 0,5.0346 4.608,5.0346 1.024,0 2.73067,-0.8533 1.792,-0.9387 2.304,-5.2053 z"
         style="font-weight:bold"
         id="path82" />
      <path
         d="m 534.92147,1069.8024 q -0.42666,5.12 -5.03466,9.0453 -4.608,3.9253 -12.88534,3.9253 -8.61866,0 -14.25066,-4.864 -5.54667,-4.864 -5.54667,-14.5066 0,-8.8747 5.03467,-14.7627 5.12,-5.9733 14.25066,-5.9733 8.02134,0 12.97067,4.608 5.03467,4.608 5.12,12.1173 0,2.816 -0.59733,5.5467 h -25.25867 q 0.93867,9.1306 9.04533,9.1306 4.43734,0 5.97334,-2.1333 1.62133,-2.1333 1.96266,-3.84 z m -11.69066,-11.264 q 0.34133,-2.9014 -1.28,-5.4614 -1.536,-2.56 -5.46134,-2.56 -3.41333,0 -5.29066,2.2187 -1.87734,2.2187 -2.38934,5.8027 z"
         style="font-weight:bold"
         id="path84" />
      <path
         d="m 573.6988,1070.1437 q 0,6.4 -5.12,9.5573 -5.03467,3.072 -13.14134,3.072 -4.18133,0 -8.448,-0.8533 -4.18133,-0.9387 -8.02133,-2.9013 l 1.536,-10.752 8.53333,0.9386 v 4.7787 q 1.536,0.512 3.24267,0.6827 1.70667,0.085 2.56,0.085 3.15733,0 5.46133,-1.024 2.304,-1.024 2.304,-3.072 0,-2.4747 -3.49866,-3.2427 -3.49867,-0.768 -8.10667,-1.536 -4.608,-0.768 -8.10667,-3.1573 -3.49866,-2.3893 -3.49866,-8.1067 0,-7.0826 5.46133,-9.472 5.54667,-2.4746 11.43467,-2.4746 7.68,0 14.42133,3.4986 l 0.93867,9.8134 -8.53334,0.9386 -0.68266,-5.376 q -2.816,-0.9386 -6.05867,-0.9386 -2.13333,0 -3.66933,0.9386 -1.45067,0.8534 -1.45067,2.7307 0,2.4747 3.328,3.328 3.41333,0.768 7.85067,1.536 4.52266,0.768 7.85066,3.1573 3.41334,2.304 3.41334,7.8507 z"
         style="font-weight:bold"
         id="path86" />
      <path
         d="m 610.39082,1069.973 q -0.85334,6.656 -4.608,9.728 -3.75467,3.072 -9.728,3.072 -6.4,0 -10.41067,-3.1573 -3.92533,-3.2427 -3.92533,-9.216 v -19.1147 h -5.46134 v -7.8506 h 5.46134 v -11.6907 h 11.008 v 11.6907 h 13.824 v 7.8506 h -13.824 v 17.2374 q 0,5.0346 4.608,5.0346 1.024,0 2.73066,-0.8533 1.792,-0.9387 2.304,-5.2053 z"
         style="font-weight:bold"
         id="path88" />
      <path
         d="m 699.47349,1081.9197 h -16.128 v -21.6747 q 0,-4.9493 -1.70667,-7.0826 -1.62133,-2.1334 -4.864,-2.1334 -3.92534,0 -5.71734,2.56 -1.70666,2.56 -1.70666,6.5707 v 13.4827 h 5.12 v 8.2773 h -16.128 v -21.6747 q 0,-4.9493 -1.70667,-7.0826 -1.62133,-2.1334 -4.864,-2.1334 -4.01067,0 -5.71733,2.56 -1.70667,2.56 -1.70667,6.5707 v 13.4827 h 7.33867 v 8.2773 h -23.46667 v -8.2773 h 5.12 v -21.8454 h -5.03467 v -8.3626 h 16.04267 v 5.8026 q 3.66933,-6.5706 11.69067,-6.5706 4.18133,0 7.68,2.048 3.49866,2.048 4.864,6.2293 3.41333,-8.2773 12.544,-8.2773 5.20533,0 9.216,3.2426 4.01067,3.2427 4.01067,10.0694 v 17.664 h 5.12 z"
         style="font-weight:bold"
         id="path90" />
      <path
         d="m 706.38146,1046.165 q 5.03467,-2.048 8.36267,-2.7306 3.41333,-0.768 8.10667,-0.768 6.22933,0 10.752,3.2426 4.52266,3.2427 4.52266,9.8134 v 16.7253 q 0,2.9867 2.64534,2.9867 0.768,0 1.62133,-0.256 l 0.0853,5.8026 q -3.328,1.792 -6.912,1.792 -7.59466,0 -8.448,-7.5946 v -0.085 q -1.62133,2.9014 -4.69333,5.2907 -2.98667,2.3893 -7.68,2.3893 -4.18133,0 -8.02133,-2.4746 -3.84,-2.4747 -3.84,-8.5334 0,-7.0826 5.632,-9.3866 5.71733,-2.304 12.288,-2.304 3.66933,0 6.31466,0.3413 v -1.28 q 0,-2.9867 -0.85333,-5.8027 -0.768,-2.816 -5.46133,-2.816 -1.70667,0 -3.15734,0.256 -1.36533,0.1707 -2.73066,0.8534 l -1.45067,5.4613 -8.78933,-0.9387 z m 20.736,20.0534 v -0.512 q -1.36533,-0.1707 -2.816,-0.3414 -1.36533,-0.1706 -2.73066,-0.1706 -2.90134,0 -5.12,1.1093 -2.21867,1.024 -2.21867,4.1813 0,1.8774 1.024,3.1574 1.024,1.28 3.49867,1.28 2.90133,0 5.376,-2.048 2.56,-2.1334 2.98666,-6.656 z"
         style="font-weight:bold"
         id="path92" />
      <path
         d="m 793.32415,1081.9197 h -21.248 v -8.2773 h 5.12 v -13.3974 q 0,-4.9493 -1.70667,-7.0826 -1.62133,-2.1334 -4.864,-2.1334 -3.92533,0 -6.05866,2.4747 -2.13334,2.3893 -2.21867,6.3147 v 13.824 h 5.12 v 8.2773 h -21.248 v -8.2773 h 5.12 v -21.8454 h -5.54667 v -8.3626 h 16.55467 v 5.888 q 3.84,-6.656 12.37333,-6.656 5.46134,0 9.472,3.2426 4.01067,3.2427 4.01067,10.0694 v 17.664 h 5.12 z"
         style="font-weight:bold"
         id="path94" />
      <path
         d="m 800.21478,1046.165 q 5.03466,-2.048 8.36266,-2.7306 3.41334,-0.768 8.10667,-0.768 6.22933,0 10.752,3.2426 4.52267,3.2427 4.52267,9.8134 v 16.7253 q 0,2.9867 2.64533,2.9867 0.768,0 1.62133,-0.256 l 0.0853,5.8026 q -3.328,1.792 -6.912,1.792 -7.59467,0 -8.448,-7.5946 v -0.085 q -1.62134,2.9014 -4.69334,5.2907 -2.98666,2.3893 -7.68,2.3893 -4.18133,0 -8.02133,-2.4746 -3.84,-2.4747 -3.84,-8.5334 0,-7.0826 5.632,-9.3866 5.71733,-2.304 12.288,-2.304 3.66933,0 6.31467,0.3413 v -1.28 q 0,-2.9867 -0.85334,-5.8027 -0.768,-2.816 -5.46133,-2.816 -1.70667,0 -3.15733,0.256 -1.36534,0.1707 -2.73067,0.8534 l -1.45067,5.4613 -8.78933,-0.9387 z m 20.736,20.0534 v -0.512 q -1.36534,-0.1707 -2.816,-0.3414 -1.36534,-0.1706 -2.73067,-0.1706 -2.90133,0 -5.12,1.1093 -2.21867,1.024 -2.21867,4.1813 0,1.8774 1.024,3.1574 1.024,1.28 3.49867,1.28 2.90133,0 5.376,-2.048 2.56,-2.1334 2.98667,-6.656 z"
         style="font-weight:bold"
         id="path96" />
      <path
         d="m 884.9388,1051.797 h -5.12 v 28.16 q 0,9.216 -5.20534,15.0187 -5.20533,5.888 -16.04266,5.888 -5.97334,0 -11.43467,-2.4747 -5.46133,-2.3893 -7.936,-9.0453 l 8.448,-4.7787 q 4.096,7.5947 11.008,7.5947 4.43733,0 7.25333,-3.2427 2.90134,-3.1573 2.90134,-8.96 v -5.0346 q -1.536,2.9013 -4.52267,4.9493 -2.98667,2.048 -8.10667,2.048 -6.74133,0 -11.776,-4.6933 -5.03466,-4.6934 -5.03466,-13.824 0,-8.6187 4.608,-14.6774 4.608,-6.0586 12.71466,-6.0586 4.52267,0 7.50934,1.8773 2.98666,1.8773 4.608,4.864 v -5.9733 h 16.128 z m -16.128,10.6667 v -0.9387 q 0,-4.7786 -2.47467,-7.424 -2.38933,-2.7306 -6.144,-2.7306 -3.66933,0 -6.144,2.7306 -2.38933,2.7307 -2.38933,8.6187 0,5.5467 2.13333,8.0213 2.21867,2.4747 5.71733,2.4747 4.52267,0 6.912,-3.2427 2.38934,-3.2426 2.38934,-7.5093 z"
         style="font-weight:bold"
         id="path98" />
      <path
         d="m 925.58813,1069.8024 q -0.42667,5.12 -5.03467,9.0453 -4.608,3.9253 -12.88533,3.9253 -8.61867,0 -14.25067,-4.864 -5.54666,-4.864 -5.54666,-14.5066 0,-8.8747 5.03466,-14.7627 5.12,-5.9733 14.25067,-5.9733 8.02133,0 12.97067,4.608 5.03466,4.608 5.12,12.1173 0,2.816 -0.59734,5.5467 H 899.3908 q 0.93866,9.1306 9.04533,9.1306 4.43733,0 5.97333,-2.1333 1.62134,-2.1333 1.96267,-3.84 z m -11.69067,-11.264 q 0.34134,-2.9014 -1.28,-5.4614 -1.536,-2.56 -5.46133,-2.56 -3.41333,0 -5.29067,2.2187 -1.87733,2.2187 -2.38933,5.8027 z"
         style="font-weight:bold"
         id="path100" />
      <path
         d="m 1000.9735,1081.9197 h -16.12801 v -21.6747 q 0,-4.9493 -1.70667,-7.0826 -1.62133,-2.1334 -4.864,-2.1334 -3.92534,0 -5.71734,2.56 -1.70666,2.56 -1.70666,6.5707 v 13.4827 h 5.12 v 8.2773 h -16.128 v -21.6747 q 0,-4.9493 -1.70667,-7.0826 -1.62133,-2.1334 -4.864,-2.1334 -4.01067,0 -5.71733,2.56 -1.70667,2.56 -1.70667,6.5707 v 13.4827 h 7.33867 v 8.2773 h -23.46667 v -8.2773 h 5.12 v -21.8454 h -5.03467 v -8.3626 h 16.04267 v 5.8026 q 3.66933,-6.5706 11.69067,-6.5706 4.18133,0 7.68,2.048 3.49866,2.048 4.864,6.2293 3.41333,-8.2773 12.544,-8.2773 5.20533,0 9.216,3.2426 4.01067,3.2427 4.01067,10.0694 v 17.664 h 5.12001 z"
         style="font-weight:bold"
         id="path102" />
      <path
         d="m 1041.5881,1069.8024 q -0.4266,5.12 -5.0346,9.0453 -4.608,3.9253 -12.8854,3.9253 -8.6186,0 -14.2506,-4.864 -5.5467,-4.864 -5.5467,-14.5066 0,-8.8747 5.0347,-14.7627 5.12,-5.9733 14.2506,-5.9733 8.0214,0 12.9707,4.608 5.0347,4.608 5.12,12.1173 0,2.816 -0.5973,5.5467 h -25.2587 q 0.9387,9.1306 9.0453,9.1306 4.4374,0 5.9734,-2.1333 1.6213,-2.1333 1.9626,-3.84 z m -11.6906,-11.264 q 0.3413,-2.9014 -1.28,-5.4614 -1.536,-2.56 -5.4614,-2.56 -3.4133,0 -5.2906,2.2187 -1.8774,2.2187 -2.3894,5.8027 z"
         style="font-weight:bold"
         id="path104" />
      <path
         d="m 1092.8242,1081.9197 h -21.248 v -8.2773 h 5.12 v -13.3974 q 0,-4.9493 -1.7067,-7.0826 -1.6213,-2.1334 -4.864,-2.1334 -3.9253,0 -6.0587,2.4747 -2.1333,2.3893 -2.2186,6.3147 v 13.824 h 5.12 v 8.2773 h -21.248 v -8.2773 h 5.12 v -21.8454 h -5.5467 v -8.3626 h 16.5547 v 5.888 q 3.84,-6.656 12.3733,-6.656 5.4613,0 9.472,3.2426 4.0107,3.2427 4.0107,10.0694 v 17.664 h 5.12 z"
         style="font-weight:bold"
         id="path106" />
      <path
         d="m 1128.5574,1069.973 q -0.8533,6.656 -4.608,9.728 -3.7546,3.072 -9.728,3.072 -6.4,0 -10.4106,-3.1573 -3.9254,-3.2427 -3.9254,-9.216 v -19.1147 h -5.4613 v -7.8506 h 5.4613 v -11.6907 h 11.008 v 11.6907 h 13.824 v 7.8506 h -13.824 v 17.2374 q 0,5.0346 4.608,5.0346 1.024,0 2.7307,-0.8533 1.792,-0.9387 2.304,-5.2053 z"
         style="font-weight:bold"
         id="path108" />
    </g>
    <g
       id="g947"
       transform="matrix(5.3567762,0,0,5.3567762,-50.29603,-11643.28)">
      <path
         style="fill:#3c8d2c;stroke-width:2.07414889"
         inkscape:connector-curvature="0"
         class="a"
         d="m 60.538966,2374.3797 c -36.65228,0.5352 -64.576546,40.8379 -28.77259,77.4259 l 9.54109,25.1138 c 1.58465,5.7413 -3.78947,18.377 -1.41043,21.903 2.73995,-5.4156 3.43065,-13.1604 7.05211,-14.0544 6.37179,4.4988 15.79879,6.0254 21.12521,11.8226 1.99118,-5.623 -6.08348,-8.504 -12.84728,-11.7168 6.31993,1.0537 10.69224,-2.3708 15.37151,3.1402 a 6.4298613,6.4298613 0 0 0 -2.0057,-6.6372 l -2.85817,-3.9057 c 5.28493,2.8064 18.43918,2.7877 21.45914,7.7034 1.16982,-9.3005 -9.89162,-6.1249 -15.11225,-8.9064 3.38709,0.4149 6.75136,-1.2652 10.09903,-0.8027 -0.89603,-2.6092 -2.43712,-3.7334 -4.71454,-3.5405 -17.9559,4.2789 -19.21906,-26.041 -18.97224,-34.6383 24.10369,-10.2214 48.445904,8.1161 67.824674,-9.4913 6.34897,-9.481 32.55169,15.2802 40.61805,36.2499 12.06118,-5.0983 -22.34895,-38.4008 -32.34012,-47.4192 5.21855,-13.8678 -15.1164,-34.0575 -33.49128,-25.1511 -12.928174,-12.2728 -27.324844,-17.2777 -40.580734,-17.0848 z"
         id="path3493" />
      <g
         transform="matrix(2.0741488,0,0,2.0741488,107.898,2400.3812)"
         id="g3497">
        <ellipse
           style="fill:#ffffff"
           class="b"
           cx="3.471"
           cy="3.6830001"
           rx="3.471"
           ry="3.6830001"
           id="ellipse3495" />
      </g>
      <g
         transform="matrix(2.0741488,0,0,2.0741488,113.52932,2407.8606)"
         id="g3501">
        <ellipse
           style="fill:#3c8d2c"
           class="a"
           cx="2.28"
           cy="2.4200001"
           rx="2.28"
           ry="2.4200001"
           id="ellipse3499" />
      </g>
    </g>
  </g>
</svg>
